<?xml version="1.0" encoding="utf-8"?>
<!-- Generator: Adobe Illustrator 19.0.0, SVG Export Plug-In . SVG Version: 6.00 Build 0)  -->
<svg version="1.1" id="Layer_1" xmlns="http://www.w3.org/2000/svg" xmlns:xlink="http://www.w3.org/1999/xlink" x="0px" y="0px"
	 viewBox="0 0 612 792" style="enable-background:new 0 0 612 792;" xml:space="preserve">
<style type="text/css">
	.st0{fill:#223367;}
	.st1{fill:#223368;}
	.st2{fill:#223266;}
	.st3{fill:#1C4176;}
	.st4{fill:#0D5FA0;}
	.st5{fill:#0978BA;}
	.st6{fill:#223468;}
	.st7{fill:#087F56;}
	.st8{fill:#223267;}
</style>
<path id="XMLID_60_" class="st0" d="M248.9,349.2c0-10.3,0-20.5,0-30.8c0-1.8,0-1.8,1.8-1.8c2.3,0,4.7,0.1,7,0
	c1.2,0,1.7,0.4,1.6,1.6c-0.3,8.3,0,16.7-0.1,25c0,1.4,0.8,1.7,2,1.7c5.7,0,11.3,0,17,0c7.5,0,15.1,0,22.6,0c1.9,0,2.3-0.4,2.3-2.3
	c0-8.1,0-16.2,0-24.3c0-1.4,0.4-1.8,1.8-1.7c2.4,0.1,4.9,0,7.3,0c0.9,0,1.4,0.3,1.3,1.3c-0.1,12-0.1,24-0.1,35.9
	c0,8.3,0,16.6,0,24.9c0,2.9,0,2.9-2.9,2.9c-2,0-4,0-6,0c-1.1,0-1.5-0.3-1.5-1.5c0.1-7.9,0.1-15.7,0.1-23.6c0-1.4-0.5-1.7-2.1-1.7
	c-11.3,0-22.7,0-34,0c-2,0-3.9,0-5.9,0c-1.3,0-1.9,0.7-1.9,1.9c0,7.8-0.2,15.5,0.1,23.3c0,1.1-0.2,1.6-1.5,1.6
	c-2.5-0.1-5.1-0.1-7.6,0c-1.1,0-1.4-0.4-1.4-1.5C248.8,369.8,248.8,359.5,248.9,349.2C248.8,349.2,248.9,349.2,248.9,349.2z"/>
<path id="XMLID_59_" class="st1" d="M379.8,360.3c0,7.3,0,14.6,0,21.9c0,2.6-0.3,5.2-1.3,7.7c-2.5,5.8-7.1,8.8-13.1,10
	c-3.2,0.6-6.3,0.4-9.5,0.4c-8,0-15.9,0-23.9,0c-2.2,0-2.2,0-1.9-2.1c0.3-1.7,0.6-3.4,0.8-5.1c0.2-1.3,0.8-1.8,2.1-1.8
	c8.5,0,16.9,0,25.4,0c1.6,0,3.2,0,4.7-0.4c3.7-0.9,6.1-3.8,6.4-7.6c0.1-1.4-0.3-1.8-1.7-1.8c-8.2,0-16.5,0-24.7,0
	c-2.7,0-5.3-0.4-7.9-1.2c-7-2.3-11.9-8.4-12.2-15.9c-0.4-9.1-0.1-18.3-0.1-27.4c0-0.9,0.3-1.4,1.3-1.3c2.5,0,5.1,0.1,7.6,0
	c1.2,0,1.4,0.5,1.4,1.5c0,8,0,15.9,0,23.9c0,1.2,0.1,2.4,0.4,3.6c1,4.6,4.7,7.8,9.4,7.9c8.1,0.1,16.2,0,24.3,0
	c1.8,0,2.4-0.7,2.4-2.5c0-10.8,0-21.6,0-32.4c0-1.9,0-1.9,1.9-1.9c2.2,0,4.5,0,6.7,0c1.2,0,1.5,0.4,1.5,1.5
	C379.8,344.9,379.8,352.6,379.8,360.3z"/>
<path id="XMLID_58_" class="st2" d="M442.5,341.1c0,7.2,0,14.3,0,21.5c0,10.3-6.8,17.8-17.1,18.7c-6.7,0.6-13.5,0.6-20.2,0
	c-10.6-1-16.8-7.7-17.2-18.4c-0.1-3.8-0.3-7.6,0.3-11.3c1.3-8.3,7.2-14.1,15.5-15.5c1.4-0.2,2.9-0.4,4.3-0.4c6.4,0,12.8,0,19.2,0
	c1.7,0,1.8,0.1,1.6,1.8c-0.2,1.8-0.5,3.5-0.7,5.3c-0.1,1.1-0.7,1.6-1.9,1.6c-5.5,0-11,0-16.6,0c-1.2,0-2.3,0.1-3.5,0.3
	c-4,0.8-6.7,3.2-7.6,7.3c-0.9,4.2-0.9,8.6-0.1,12.8c0.9,5,3.9,7.7,9.2,8c4.8,0.3,9.7,0.3,14.6,0c6.5-0.5,9.9-4.5,9.9-11.1
	c0-14.3,0-28.6,0-43c0-2,0-1.9,1.9-1.9c2.2,0,4.5,0.1,6.7,0c1.2,0,1.6,0.3,1.6,1.6C442.5,325.8,442.5,333.5,442.5,341.1
	C442.5,341.1,442.5,341.1,442.5,341.1z"/>
<path id="XMLID_56_" class="st0" d="M172.9,367.1c0-4,0-8,0-11.9c0.1-10.9,7.8-19.1,18.7-19.4c7.7-0.2,15.3-0.1,23-0.1
	c1,0,1.4,0.4,1.2,1.3c-0.3,1.9-0.6,3.8-0.8,5.7c-0.1,1.2-0.7,1.6-1.9,1.6c-5.9,0-11.9,0-17.8,0c-1.2,0-2.4,0.1-3.6,0.4
	c-5.6,1.3-8.7,5.2-8.7,11.3c0,7.6,0,15.2,0,22.7c0,3,0,3-3,3c-2,0-3.9,0-5.9,0c-1,0-1.3-0.4-1.3-1.3
	C172.8,375.9,172.8,371.5,172.9,367.1C172.8,367.1,172.8,367.1,172.9,367.1z"/>
<path id="XMLID_55_" class="st0" d="M450.3,366.7c0-3.9,0-7.9,0-11.8c0-9.9,6.5-17.4,16.3-19c1.4-0.2,2.8-0.3,4.2-0.3
	c6.9,0,13.9,0,20.8,0c1.4,0,1.7,0.5,1.5,1.7c-0.3,1.9-0.6,3.8-0.8,5.7c-0.2,1.1-0.9,1.2-1.9,1.2c-6,0-12,0-18,0
	c-2.6,0-5.1,0.5-7.3,2c-3.4,2.3-4.5,5.7-4.5,9.6c0,8.1,0,16.2,0,24.3c0,1-0.3,1.5-1.3,1.4c-2.5-0.1-5.1,0-7.6,0
	c-1,0-1.4-0.3-1.4-1.4C450.3,375.7,450.3,371.2,450.3,366.7C450.3,366.7,450.3,366.7,450.3,366.7z"/>
<path id="XMLID_54_" class="st0" d="M237.2,358.8c0,7.2,0,14.3,0,21.5c0,0.9-0.2,1.4-1.2,1.4c-2.5,0-5.1,0-7.6,0
	c-1,0-1.3-0.3-1.3-1.3c0-14.2,0-28.4,0.1-42.5c0-2,0-2,2-2c2.2,0,4.4,0,6.6,0c1.1,0,1.5,0.4,1.5,1.5
	C237.1,344.3,237.1,351.6,237.2,358.8C237.1,358.8,237.2,358.8,237.2,358.8z"/>
<g id="XMLID_2_">
	<path id="XMLID_53_" class="st3" d="M534.6,373.4c1.8,5.4-1.1,11.7-6.5,14c-5.5,2.4-12.2,0-14.9-5.3c0.3-0.9,1.3-1.2,2-1.5
		c3.7-1.6,7.3-3.3,10.8-5.3c1.5-0.8,3.3-0.8,4.8-1.5c0.6-0.3,1.3-0.6,1.9-0.8C533.4,372.7,534.1,372.6,534.6,373.4z"/>
	<path id="XMLID_51_" class="st4" d="M534.6,373.4c-1.6-0.9-2.6,0.5-3.9,0.9c-6.1,1.6-11.3,5.1-17,7.7c-0.2,0.1-0.3,0.1-0.5,0.2
		c-1.5-2.6-1.9-5.3-1.1-8.1c2-1.5,4.2-2.6,6.4-3.7c3.2-1.7,6.6-3.2,9.8-5.1c0.7-0.4,1.5-0.9,2.5-0.5
		C532.3,367.5,533.8,370.3,534.6,373.4z"/>
	<path id="XMLID_50_" class="st5" d="M530.8,364.7c-1.3,0.3-2.5,1-3.6,1.6c-4.7,2.5-9.7,4.7-14.2,7.5c-0.2,0.1-0.5,0.1-0.8,0.2
		c0.1-1.9,1.1-3.6,1.9-5.2c2.7-5.8,5.9-11.4,9-17c0.1-0.2,0.2-0.5,0.7-0.6C526.1,355.5,528.6,360,530.8,364.7z"/>
</g>
<path id="XMLID_49_" class="st6" d="M232.5,331.3c-3.4,0-6-2.4-6-5.7c0-3.1,2.6-5.7,5.8-5.8c3.1,0,5.7,2.5,5.8,5.6
	C238,328.8,235.6,331.3,232.5,331.3z"/>
<g id="XMLID_1_">
	<path id="XMLID_57_" class="st7" d="M513.3,325.3c1.2-2.4,2.4-4.8,3.6-7.3c0.5-1,1.2-1.4,2.2-1.4c3,0,6,0,9,0c1,0,1.7,0.4,2.1,1.3
		c0.5,1.2,1.1,2.4,1.7,3.7c0.2,0.6-0.3,0.5-0.6,0.5c-2.2-0.1-4.5-0.1-6.7-0.1c-0.9,0-1.8-0.3-2.6-0.8c-0.4-0.3-0.9-0.5-1.4-0.7
		c-0.3-0.1-0.7-0.3-0.9,0c-0.2,0.4,0.2,0.5,0.4,0.7c2.1,1.9,4.7,3.4,6.6,5.6c0.7,0.8,1.5,1.5,2.1,2.4c0.6,0.8,1.3,1.4,2.1,2
		c1.7,1.3,2.7,3.3,3.9,5.1c2.6,3.7,4.8,7.7,7.4,11.4c2.3,3.3,5.1,6.3,7.9,9.3c1.8,2.8,3.2,5.9,4.8,8.9c2.6,4.9,5.1,9.8,7.7,14.7
		c0.1,0.2,0.4,0.4,0.2,0.9c-4,0-8.1,0-12.1,0c-0.8,0-0.9-0.5-1.2-1c-5.1-9.9-10.2-19.7-15.3-29.6c-3.6-7-7.1-14-10.7-21.1
		c-1.3,2.6-2.6,5.1-3.8,7.7c-7.1,14.5-14.6,28.8-22.1,43c-0.4,0.8-0.9,1.1-1.8,1.1c-3.8-0.1-7.7,0-11.6,0c0-0.8,0.5-1.2,0.8-1.8
		c4.5-8.7,9.1-17.3,13.6-25.9c0.1-0.2,0.3-0.5,0.5-0.7c3.1-1.7,4.6-4.9,6.4-7.6c1.6-2.4,3.6-4.8,4.7-7.6c0.7-1.9,2-3.6,2.8-5.5
		c0.6-1.4,0.8-2.9,1.3-4.3c0.2-0.6-0.1-1.1-0.4-1.6C513.3,326.3,513,325.9,513.3,325.3z"/>
	<path id="XMLID_52_" class="st7" d="M550.1,357.1c-0.3,0.1-0.5,0.2-0.8-0.1c-2.4-2.9-5.1-5.7-7.3-8.8c-2.7-3.8-4.9-7.9-7.6-11.7
		c-1.4-2-2.7-4-4.7-5.6c-2-1.6-3.4-3.9-5.4-5.6c-1.5-1.4-3.3-2.6-4.9-3.8c-0.4-0.3-0.8-0.6-0.5-1.1c0.3-0.4,0.6-0.7,1.2-0.4
		c0.7,0.4,1.5,0.5,2.1,1.1c0.5,0.5,1.2,0.6,1.8,0.6c2.6,0.1,5.1,0,7.7,0c2.5,4.9,5,9.8,7.6,14.7c3.5,6.7,7,13.4,10.5,20.2
		C550,356.7,550,356.9,550.1,357.1z"/>
	<path id="XMLID_48_" class="st7" d="M513.3,325.3c0.1,0.2,0.1,0.5,0.2,0.6c1.3,1,0.9,2.2,0.7,3.6c-0.8,3.9-3,7.2-4.9,10.5
		c-2.1,3.9-4.9,7.5-7.5,11.2c-0.7,1-1.7,1.6-2.9,1.9c2.1-4.1,4.1-8.2,6.2-12.2C507.8,335.7,510.6,330.5,513.3,325.3z"/>
</g>
<path id="XMLID_3_" class="st8" d="M65.4,322.4c0.4,2.5-0.6,4.5-1.7,6.9c2.3-1.1,3.5-2.8,5-4.5c0.5,2.2-0.2,4.2-1.1,6.2
	c2.5,0,4.7,0.3,6.6,1.8c-0.4,0.4-1,0-1.4,0.5c2.3,1.4,3.9,3.4,4.9,6.1c3.4-5.5,3.9-11,1.7-16.8c-0.9-2.4-2.4-4.4-4.4-5.9
	c-4.2-3.2-9.7-4.2-14.3,1.2c-0.7,0.8-1.3,1.6-2.6,1.4c-1.2-0.2-1.6-0.9-0.9-2c0.7-1.2,1.8-2,2.4-3.3c-1.3-0.5-2.4-0.1-3.5,0.4
	c-1.9,0.9-3.3,2.3-4.2,4.2c-0.4,0.9-1,0.9-1.7,0.5c-1.6-0.9-3-2.1-3.7-3.9c-0.4-1-0.3-1.8,0.8-2.5c1.8-1.1,3.3-2.4,4.4-4.2
	c0.4-0.7,0.8-1.4,0.8-2.2c0-1.1,0.6-1.8,1.5-2.4c1.1-0.7,2-1.6,2.7-2.8c1-1.8,2.4-2.8,4.5-2.9c0.9,0,1.7-0.4,2.4-0.9
	c2.7-2,5-4.5,6.5-7.6c0.5,1.2,0.5,2.4-0.1,4.2c-0.4,1.4-0.9,2.7-1.4,4.2c2.7-1.1,3.9-3.2,4.8-6c0.8,3.4,0.7,6.2-0.8,9
	c3.4,0.5,6.3,1.7,9,4.1c-0.8-0.1-1.4-0.1-2.2-0.2c1,0.9,1.9,1.6,2.7,2.4c4.2,4.5,7.6,9.5,9.2,15.5c1.4,5.3,1,10.5-1.7,15.4
	c-0.2,0.3-0.3,0.7-0.5,1c0,0,0,0.1,0,0.2c4.6-0.8,8.9-2.3,12.9-4.9c6.9-4.5,11.4-10.7,12.9-18.9c0.4-2.4,0.4-4.8-0.4-7.1
	c-1.2-3.3-4.1-4.5-7.2-3c-1.9,0.9-3.3,2.4-4.7,4c-0.7,0.9-1.5,1.5-2.7,1.1c-1.2-0.4-1.5-1-0.8-2c0.8-1.2,1.8-2.2,2.8-3.4
	c-1.1-0.5-2-0.1-2.9,0.3c-2,0.8-3.7,2.2-4.8,4.1c-0.6,1-1.2,1-2,0.5c-1.5-1-2.8-2.2-3.4-4c-0.4-1-0.1-1.7,0.8-2.2
	c1.9-1.2,3.6-2.5,5-4.3c0.6-0.8,1.2-1.5,1.2-2.6c0-0.8,0.6-1.5,1.3-1.9c1.3-0.8,2.3-1.9,3.2-3.1c0.9-1.2,2-1.9,3.6-1.9
	c1.3,0,2.4-0.5,3.4-1.4c2.2-1.9,4-4.1,5.9-6.8c0,2.9-0.8,5.3-2.1,7.9c2.7-1.2,4-3.4,5.6-5.5c0.4,2.4,0.1,4.5-0.9,6.5
	c-0.2,0.4-0.5,0.7,0.2,0.9c5.2,2,7.8,6.2,9.3,11.2c1.2,4,1.2,8.1-0.2,12.1c-3.1,8.2-6.8,16.1-13,22.5c-4.7,4.9-10.4,8.4-16.5,11.2
	c-3.7,1.7-7.6,3.1-11.4,4.7c-2,0.9-4,1.9-5.6,3.4c-1,1-2.1,2.1-1.5,3.8c0.4,1.1,2.2,1.7,4.1,1.4c2-0.3,3.8-0.9,5.6-1.9
	c11.1-5.9,21.3-13.1,29-23.2c3.3-4.4,6-9.1,8.1-14.2c2.3-5.5,6.5-7.9,12.3-7.9c18,0.1,36.1,0,54.1,0c1.8,0,1.8,0,1.8,1.8
	c0,2.1,0,4.2,0,6.3c0,2,0,2-1.9,2c-9.9,0-19.8,0-29.6,0c-2.5,0-3.3,0.8-3.3,3.3c0,16.6,0,33.2,0,49.9c0,3.3,0.7,3.1-3.1,3.1
	c-2.2,0-4.5,0-6.7,0c-1.1,0-1.5-0.4-1.5-1.5c0.1-11.7,0.1-23.5,0.1-35.2c0-1,0.1-2.1-1.1-2.5c-1.3-0.4-2,0.4-2.6,1.4
	c-6.3,9.9-14.8,17.7-24,24.8c-1.6,1.3-3.3,2.5-4.5,4.2c-0.6,0.8-1.1,1.7-0.6,2.7c0.6,1.1,1.6,0.9,2.6,0.9c1.4,0,2.5-0.6,3.7-1.2
	c5.1-2.7,9.1-6.8,12.8-11.2c0.3-0.4,0.7-0.8,1.1-1.3c0,1-0.5,1.7-0.8,2.3c-2.2,5-4.7,9.9-8.5,13.9c-3.8,3.9-8.1,6.9-13.7,7.7
	c-2.1,0.3-4.1,0.2-6.1-0.4c-4.3-1.3-6.4-4.9-5.4-9.2c1-4.2,3.7-7.2,6.7-10c2.4-2.2,5.1-4.1,7.8-6c8.7-6,15.4-13.8,21.1-22.7
	c1.3-2.1,2.7-4.2,3.7-6.5c0.4-1,0.7-2.1-0.3-3c-1-0.8-2-0.4-3,0.2c-1.9,1.1-3.2,2.7-4.4,4.4c-2.3,3.4-4.4,6.8-6.7,10.2
	c-3.9,5.8-8.8,10.7-14.3,15c-7.5,5.9-14.8,12-22.5,17.7c-3.7,2.7-7.8,4.5-12.4,4.7c-12.5,0.5-17.7-11-14.4-20.3
	c1.1-2.9,2.7-5.4,4.7-7.7c1.2-1.4,1.7-3,1.1-4.8c-0.9-2.8-3.1-4-6-3.4c-2.8,0.6-4.9,2.3-6.7,4.4c-0.3,0.4-0.6,0.7-1,1
	c-0.8,0.6-1.6,0.3-2.3-0.2c-0.8-0.6-0.2-1.2,0.2-1.7c0.6-0.8,1.3-1.6,2-2.4c0.2-0.3,0.7-0.6,0.5-0.9c-0.2-0.3-0.7-0.3-1.2-0.2
	c-2.7,0.6-5,1.8-6.4,4.2c-0.8,1.3-1.4,1.2-2.4,0.5c-1.3-1-2.3-2.2-2.9-3.7c-0.4-0.9-0.2-1.6,0.6-2.2c1.8-1.2,3.6-2.5,5.3-3.9
	c2-1.8,3.8-3.8,5.1-6.1c0.7-1.2,1.8-2,3.3-2.3c3.8-0.7,6.3-3.3,8.8-5.9C63.9,324.4,64.5,323.4,65.4,322.4z M102.9,297.8
	c-2.4,0.3-4,1.5-5,3.9C101.4,301.5,102.7,300.4,102.9,297.8z M55.7,337.2c-2.4,0.1-4.1,1.2-5.1,3.5C54.2,340.4,55,339.9,55.7,337.2z
	 M59.5,306.5c-2.2,0.5-4,1.4-4.6,3.9C58.1,310.2,59.1,309.3,59.5,306.5z"/>
</svg>
